<svg width="239" height="48" viewBox="0 0 239 48" fill="none" xmlns="http://www.w3.org/2000/svg">
<path d="M4.93165 20.5288H0.584011V13.7802H4.93165V11.3793C4.93165 8.52409 5.58055 6.31783 6.87835 4.76047C7.52725 3.85201 8.37082 3.09496 9.40906 2.48932C10.4473 1.88368 11.6153 1.42945 12.9131 1.12663C14.2109 0.823805 15.5952 0.650765 17.0661 0.607505C18.5802 0.564246 20.1159 0.629136 21.6733 0.802177V8.26454C20.6783 8.22127 19.7915 8.2429 19.0128 8.32942C18.2341 8.37268 17.5852 8.52409 17.0661 8.78365C16.547 9.04322 16.136 9.45419 15.8332 10.0166C15.5736 10.5357 15.4438 11.2495 15.4438 12.1579V13.7802H21.6733V20.5288H15.4438V47.0039H4.93165V20.5288ZM25.0476 13.7802H35.6246V47.0039H25.0476V13.7802ZM25.0476 0.607505H35.6246V9.173H25.0476V0.607505ZM38.7972 0.607505H49.504V47.0039H38.7972V0.607505ZM52.6912 13.7802H62.8141V18.5172H63.0088C64.047 16.7868 65.3664 15.4024 66.9671 14.3642C68.6109 13.326 70.6442 12.8068 73.0667 12.8068C75.273 12.8068 77.1548 13.326 78.7122 14.3642C80.3128 15.4024 81.5457 16.83 82.4109 18.6469H82.5407C83.8385 16.6137 85.3526 15.1429 87.083 14.2344C88.8566 13.2827 90.825 12.8068 92.988 12.8068C94.8482 12.8068 96.492 13.1097 97.9196 13.7153C99.3472 14.3209 100.515 15.1861 101.424 16.3109C102.375 17.3924 103.089 18.7118 103.565 20.2692C104.041 21.8266 104.279 23.5353 104.279 25.3955V47.0039H93.7018V27.2773C93.7018 25.4604 93.3124 24.0761 92.5337 23.1244C91.7983 22.1294 90.6303 21.6319 89.0297 21.6319C87.3425 21.6319 86.0447 22.2592 85.1363 23.5137C84.2278 24.7682 83.7736 26.3905 83.7736 28.3805V47.0039H73.1965V27.2773C73.1965 25.4604 72.8072 24.0761 72.0285 23.1244C71.2931 22.1294 70.125 21.6319 68.5244 21.6319C66.8805 21.6319 65.5827 22.2592 64.631 23.5137C63.7226 24.7682 63.2683 26.3905 63.2683 28.3805V47.0039H52.6912V13.7802ZM107.143 0.607505H117.59V25.0062L127.454 13.7802H139.653L127.973 26.2391L141.016 47.0039H128.752L120.77 33.4419L117.59 36.8162V47.0039H107.143V0.607505ZM141.507 13.7802H151.63V18.9714H151.825C152.993 16.9814 154.29 15.5322 155.718 14.6238C157.145 13.7153 158.876 13.2611 160.909 13.2611C161.904 13.2611 162.596 13.3476 162.986 13.5206V22.6052H162.726C159.482 22.1294 156.886 22.6918 154.939 24.2924C153.036 25.8497 152.084 28.4453 152.084 32.0792V47.0039H141.507V13.7802ZM173.249 47.8475C171.605 47.8475 170.069 47.6312 168.642 47.1986C167.257 46.766 166.068 46.1171 165.073 45.2519C164.078 44.3867 163.299 43.3268 162.737 42.0723C162.174 40.8177 161.893 39.3685 161.893 37.7246C161.893 35.9077 162.218 34.3936 162.866 33.1823C163.559 31.9278 164.489 30.9112 165.657 30.1325C166.825 29.3105 168.166 28.6833 169.68 28.2507C171.237 27.8181 172.881 27.4936 174.612 27.2773C177.726 26.888 179.911 26.4554 181.165 25.9795C182.42 25.5037 183.047 24.7034 183.047 23.5786C183.047 22.4971 182.68 21.6319 181.944 20.983C181.252 20.3341 180.106 20.0096 178.505 20.0096C176.818 20.0096 175.542 20.3773 174.676 21.1128C173.811 21.8482 173.292 22.9081 173.119 24.2924H163.386C163.429 22.735 163.775 21.2642 164.424 19.8799C165.073 18.4955 166.003 17.2843 167.214 16.246C168.469 15.2078 170.026 14.3858 171.886 13.7802C173.746 13.1745 175.931 12.8717 178.44 12.8717C180.949 12.8717 183.069 13.1097 184.799 13.5855C186.53 14.0181 188.001 14.6887 189.212 15.5971C190.639 16.6354 191.699 17.9548 192.391 19.5554C193.084 21.156 193.43 22.9946 193.43 25.0711V41.8127C193.43 43.1538 193.495 44.2136 193.624 44.9923C193.797 45.7277 194.122 46.2469 194.598 46.5497V47.0039H184.345C184.086 46.6578 183.869 46.182 183.696 45.5763C183.523 44.9274 183.372 44.1704 183.242 43.3052H183.112C182.117 44.6895 180.841 45.7926 179.284 46.6146C177.77 47.4365 175.758 47.8475 173.249 47.8475ZM176.623 41.0989C178.613 41.0989 180.214 40.5582 181.425 39.4767C182.68 38.3952 183.307 36.9459 183.307 35.129V31.1707C182.615 31.5168 181.793 31.8413 180.841 32.1441C179.933 32.4036 178.938 32.6632 177.856 32.9228C175.823 33.3986 174.352 33.961 173.444 34.6099C172.535 35.2155 172.081 36.1456 172.081 37.4002C172.081 38.7412 172.513 39.693 173.379 40.2553C174.244 40.8177 175.325 41.0989 176.623 41.0989ZM199.076 20.5288H194.793V13.7802H199.076V11.3793C199.076 8.04823 199.985 5.47426 201.802 3.65734C203.229 2.27302 205.219 1.38619 207.771 0.996845C210.324 0.564245 213.028 0.499355 215.883 0.802177V8.26454C214.888 8.22127 214.001 8.2429 213.222 8.32942C212.443 8.37268 211.795 8.52409 211.275 8.78365C210.756 9.04322 210.345 9.45419 210.043 10.0166C209.783 10.5357 209.653 11.2495 209.653 12.1579V13.7802H215.883V20.5288H209.653V47.0039H199.076V20.5288ZM232.406 47.3932C230.848 47.3932 229.421 47.2635 228.123 47.0039C226.869 46.7011 225.765 46.2036 224.814 45.5114C223.862 44.8193 223.127 43.8892 222.607 42.7212C222.088 41.5099 221.829 40.0174 221.829 38.2437V20.399H217.416V13.7802H221.829V3.268H232.146V13.7802H238.181V20.399H232.146V35.9726C232.146 37.2704 232.471 38.1356 233.12 38.5682C233.812 39.0008 234.72 39.2171 235.845 39.2171C236.321 39.2171 236.775 39.2171 237.208 39.2171C237.64 39.1738 237.965 39.1522 238.181 39.1522V46.8741C237.705 47.0039 236.97 47.1121 235.975 47.1986C235.023 47.3284 233.833 47.3932 232.406 47.3932Z" fill="black"/>
</svg>
