<svg width="266" height="300" viewBox="0 0 266 300" fill="none" xmlns="http://www.w3.org/2000/svg">
<rect width="266" height="300" fill="white"/>
<path d="M17.9316 271.005H28.4438V244.53H34.6733V237.781H28.4438V236.159C28.4438 232.46 30.715 232.136 34.6733 232.266V224.803C28.3789 224.154 22.474 225.063 19.8783 228.761C18.5805 230.319 17.9316 232.525 17.9316 235.38V237.781H13.584V244.53H17.9316V271.005ZM38.0476 271.005H48.6246V237.781H38.0476V271.005ZM38.0476 233.174H48.6246V224.608H38.0476V233.174ZM51.7972 271.005H62.504V224.608H51.7972V271.005ZM65.6912 271.005H76.2683V252.381C76.2683 248.423 78.215 245.633 81.5244 245.633C84.704 245.633 86.1965 247.709 86.1965 251.278V271.005H96.7736V252.381C96.7736 248.423 98.6554 245.633 102.03 245.633C105.209 245.633 106.702 247.709 106.702 251.278V271.005H117.279V249.396C117.279 241.934 113.515 236.808 105.988 236.808C101.705 236.808 98.1363 238.625 95.5407 242.648H95.4109C93.7238 239.079 90.4144 236.808 86.0667 236.808C81.2649 236.808 78.0852 239.079 76.0088 242.518H75.8141V237.781H65.6912V271.005ZM120.143 271.005H130.59V260.817L133.77 257.443L141.752 271.005H154.016L140.973 250.24L152.653 237.781H140.454L130.59 249.007V224.608H120.143V271.005ZM154.507 271.005H165.084V256.08C165.084 248.877 169.237 245.698 175.726 246.606H175.986V237.522C175.531 237.327 174.882 237.262 173.909 237.262C169.886 237.262 167.161 239.014 164.825 242.972H164.63V237.781H154.507V271.005ZM186.249 271.848C191.245 271.848 194.165 270.096 196.112 267.306H196.242C196.502 268.993 196.826 270.291 197.345 271.005H207.598V270.551C206.689 269.967 206.43 268.474 206.43 265.814V249.072C206.43 244.919 205.067 241.675 202.212 239.598C199.811 237.781 196.437 236.873 191.44 236.873C181.382 236.873 176.645 242.129 176.386 248.293H186.119C186.444 245.503 188.131 244.011 191.505 244.011C194.685 244.011 196.047 245.438 196.047 247.58C196.047 249.851 193.841 250.5 187.612 251.278C180.733 252.187 174.893 254.393 174.893 261.726C174.893 268.279 179.63 271.848 186.249 271.848ZM189.623 265.1C187.028 265.1 185.081 264.062 185.081 261.401C185.081 258.87 186.768 257.832 190.856 256.924C192.997 256.405 194.944 255.885 196.307 255.172V259.13C196.307 262.699 193.581 265.1 189.623 265.1ZM212.076 271.005H222.653V244.53H228.883V237.781H222.653V236.159C222.653 232.46 224.859 232.136 228.883 232.266V224.803C223.172 224.219 217.657 224.868 214.802 227.658C213.049 229.41 212.076 231.941 212.076 235.38V237.781H207.793V244.53H212.076V271.005ZM245.406 271.394C248.261 271.394 250.273 271.135 251.181 270.875V263.153C250.792 263.153 249.753 263.218 248.845 263.218C246.574 263.218 245.146 262.569 245.146 259.974V244.4H251.181V237.781H245.146V227.269H234.829V237.781H230.416V244.4H234.829V262.245C234.829 269.383 239.241 271.394 245.406 271.394Z" fill="black"/>
<rect x="133.184" y="25" width="56.257" height="56.257" fill="#9364F2"/>
<rect x="133.184" y="81.2559" width="56.257" height="56.257" fill="#FE4E7F"/>
<path d="M76.9277 81.257C76.9277 50.1871 102.115 25 133.185 25V25V81.257H76.9277V81.257Z" fill="#FFC700"/>
<rect x="76.9277" y="81.2559" width="56.257" height="56.257" fill="#2A2E9A"/>
<rect x="76.9277" y="137.514" width="56.257" height="56.257" fill="#84C3F6"/>
</svg>
