<?xml version="1.0" encoding="utf-8"?>
<!-- Generator: Adobe Illustrator 26.5.0, SVG Export Plug-In . SVG Version: 6.00 Build 0)  -->
<svg version="1.1" id="Layer_1" xmlns="http://www.w3.org/2000/svg" xmlns:xlink="http://www.w3.org/1999/xlink" x="0px" y="0px"
	 viewBox="0 0 266 300" style="enable-background:new 0 0 266 300;" xml:space="preserve">
<style type="text/css">
	.st0{fill:#FFFFFF;}
	.st1{fill:#9364F2;}
	.st2{fill:#FE4E7F;}
	.st3{fill:#FFC700;}
	.st4{fill:#2A2E9A;}
	.st5{fill:#84C3F6;}
</style>
<rect y="0" class="st0" width="266" height="300"/>
<path class="st0" d="M17.9,271h10.5v-26.5h6.2v-6.7h-6.2v-1.6c0-3.7,2.3-4,6.2-3.9v-7.5c-6.3-0.6-12.2,0.3-14.8,4
	c-1.3,1.6-1.9,3.8-1.9,6.6v2.4h-4.3v6.7h4.3V271z M38,271h10.6v-33.2H38V271z M38,233.2h10.6v-8.6H38V233.2z M51.8,271h10.7v-46.4
	H51.8V271z M65.7,271h10.6v-18.6c0-4,1.9-6.7,5.3-6.7c3.2,0,4.7,2.1,4.7,5.6V271h10.6v-18.6c0-4,1.9-6.7,5.3-6.7
	c3.2,0,4.7,2.1,4.7,5.6V271h10.6v-21.6c0-7.5-3.8-12.6-11.3-12.6c-4.3,0-7.9,1.8-10.4,5.8h-0.1c-1.7-3.6-5-5.8-9.3-5.8
	c-4.8,0-8,2.3-10.1,5.7h-0.2v-4.7H65.7V271z M120.1,271h10.4v-10.2l3.2-3.4l8,13.6H154l-13-20.8l11.7-12.5h-12.2l-9.9,11.2v-24.4
	h-10.4V271z M154.5,271h10.6v-14.9c0-7.2,4.2-10.4,10.6-9.5h0.3v-9.1c-0.5-0.2-1.1-0.3-2.1-0.3c-4,0-6.7,1.8-9.1,5.7h-0.2v-5.2
	h-10.1V271z M186.2,271.8c5,0,7.9-1.8,9.9-4.5h0.1c0.3,1.7,0.6,3,1.1,3.7h10.3v-0.5c-0.9-0.6-1.2-2.1-1.2-4.7v-16.7
	c0-4.2-1.4-7.4-4.2-9.5c-2.4-1.8-5.8-2.7-10.8-2.7c-10.1,0-14.8,5.3-15.1,11.4h9.7c0.3-2.8,2-4.3,5.4-4.3c3.2,0,4.5,1.4,4.5,3.6
	c0,2.3-2.2,2.9-8.4,3.7c-6.9,0.9-12.7,3.1-12.7,10.4C174.9,268.3,179.6,271.8,186.2,271.8z M189.6,265.1c-2.6,0-4.5-1-4.5-3.7
	c0-2.5,1.7-3.6,5.8-4.5c2.1-0.5,4.1-1,5.5-1.8v4C196.3,262.7,193.6,265.1,189.6,265.1z M212.1,271h10.6v-26.5h6.2v-6.7h-6.2v-1.6
	c0-3.7,2.2-4,6.2-3.9v-7.5c-5.7-0.6-11.2,0.1-14.1,2.9c-1.8,1.8-2.7,4.3-2.7,7.7v2.4h-4.3v6.7h4.3V271z M245.4,271.4
	c2.9,0,4.9-0.3,5.8-0.5v-7.7c-0.4,0-1.4,0.1-2.3,0.1c-2.3,0-3.7-0.6-3.7-3.2v-15.6h6v-6.6h-6v-10.5h-10.3v10.5h-4.4v6.6h4.4v17.8
	C234.8,269.4,239.2,271.4,245.4,271.4z"/>
<rect x="133.2" y="25" class="st1" width="56.3" height="56.3"/>
<rect x="133.2" y="81.3" class="st2" width="56.3" height="56.3"/>
<path class="st3" d="M76.9,81.3c0-31.1,25.2-56.3,56.3-56.3l0,0v56.3H76.9L76.9,81.3z"/>
<rect x="76.9" y="81.3" class="st4" width="56.3" height="56.3"/>
<rect x="76.9" y="137.5" class="st5" width="56.3" height="56.3"/>
</svg>
