<svg width="295" height="80" viewBox="0 0 295 80" fill="none" xmlns="http://www.w3.org/2000/svg">
<path d="M53.5046 35.5878H49.0031V28.6004H53.5046V26.1145C53.5046 23.1583 54.1765 20.8739 55.5202 19.2615C56.1921 18.3208 57.0655 17.537 58.1405 16.9099C59.2155 16.2829 60.4249 15.8125 61.7686 15.499C63.1123 15.1855 64.5456 15.0063 66.0685 14.9615C67.6362 14.9167 69.2263 14.9839 70.8388 15.1631V22.8895C69.8086 22.8448 68.8904 22.8671 68.0841 22.9567C67.2779 23.0015 66.606 23.1583 66.0685 23.427C65.531 23.6958 65.1055 24.1213 64.792 24.7036C64.5232 25.2411 64.3889 25.9801 64.3889 26.9207V28.6004H70.8388V35.5878H64.3889V63H53.5046V35.5878ZM74.3325 28.6004H85.2839V63H74.3325V28.6004ZM74.3325 14.9615H85.2839V23.8302H74.3325V14.9615ZM88.5687 14.9615H99.6545V63H88.5687V14.9615ZM102.955 28.6004H113.436V33.505H113.637C114.712 31.7134 116.078 30.2801 117.736 29.2051C119.438 28.1301 121.543 27.5926 124.051 27.5926C126.336 27.5926 128.284 28.1301 129.896 29.2051C131.554 30.2801 132.83 31.7582 133.726 33.6394H133.86C135.204 31.5342 136.772 30.0113 138.564 29.0707C140.4 28.0853 142.438 27.5926 144.677 27.5926C146.604 27.5926 148.306 27.9062 149.784 28.5332C151.262 29.1603 152.471 30.0561 153.412 31.2207C154.397 32.3405 155.136 33.7066 155.629 35.3191C156.122 36.9316 156.368 38.7008 156.368 40.6268V63H145.417V42.5752C145.417 40.694 145.013 39.2607 144.207 38.2753C143.446 37.2451 142.236 36.73 140.579 36.73C138.832 36.73 137.489 37.3795 136.548 38.6784C135.607 39.9774 135.137 41.657 135.137 43.7174V63H124.186V42.5752C124.186 40.694 123.782 39.2607 122.976 38.2753C122.215 37.2451 121.005 36.73 119.348 36.73C117.646 36.73 116.302 37.3795 115.317 38.6784C114.376 39.9774 113.906 41.657 113.906 43.7174V63H102.955V28.6004ZM159.334 14.9615H170.151V40.2237L180.363 28.6004H192.994L180.901 41.5003L194.405 63H181.707L173.443 48.958L170.151 52.4517V63H159.334V14.9615ZM194.914 28.6004H205.395V33.9753H205.596C206.806 31.915 208.149 30.4145 209.628 29.4738C211.106 28.5332 212.897 28.0629 215.003 28.0629C216.033 28.0629 216.749 28.1525 217.153 28.3317V37.7378H216.884C213.524 37.2451 210.837 37.8274 208.821 39.4847C206.851 41.0971 205.865 43.7846 205.865 47.5471V63H194.914V28.6004ZM227.779 63.8734C226.077 63.8734 224.487 63.6495 223.009 63.2016C221.575 62.7536 220.344 62.0818 219.313 61.186C218.283 60.2901 217.477 59.1928 216.895 57.8938C216.312 56.5949 216.021 55.0944 216.021 53.3923C216.021 51.5111 216.357 49.9434 217.029 48.6892C217.746 47.3903 218.709 46.3377 219.918 45.5315C221.128 44.6804 222.516 44.031 224.084 43.583C225.696 43.1351 227.398 42.7992 229.19 42.5752C232.415 42.1721 234.677 41.7242 235.976 41.2315C237.275 40.7388 237.924 39.9102 237.924 38.7456C237.924 37.6258 237.543 36.73 236.782 36.0581C236.065 35.3863 234.878 35.0503 233.221 35.0503C231.474 35.0503 230.153 35.4311 229.257 36.1925C228.361 36.954 227.824 38.0513 227.645 39.4847H217.567C217.611 37.8722 217.97 36.3493 218.642 34.916C219.313 33.4826 220.277 32.2285 221.531 31.1535C222.83 30.0785 224.442 29.2275 226.368 28.6004C228.294 27.9733 230.556 27.6598 233.154 27.6598C235.752 27.6598 237.947 27.9061 239.738 28.3989C241.53 28.8468 243.053 29.541 244.307 30.4816C245.785 31.5566 246.882 32.9228 247.599 34.58C248.316 36.2373 248.674 38.1409 248.674 40.2909V57.6251C248.674 59.0136 248.741 60.111 248.876 60.9172C249.055 61.6787 249.391 62.2162 249.883 62.5297V63H239.268C238.999 62.6417 238.775 62.149 238.596 61.5219C238.417 60.85 238.26 60.0662 238.126 59.1704H237.991C236.961 60.6037 235.64 61.7458 234.027 62.5969C232.46 63.4479 230.377 63.8734 227.779 63.8734ZM231.273 56.886C233.333 56.886 234.99 56.3261 236.245 55.2063C237.543 54.0866 238.193 52.5861 238.193 50.7048V46.6064C237.476 46.9648 236.625 47.3007 235.64 47.6142C234.699 47.883 233.669 48.1517 232.549 48.4205C230.444 48.9132 228.921 49.4955 227.981 50.1673C227.04 50.7944 226.57 51.7574 226.57 53.0564C226.57 54.4449 227.018 55.4303 227.913 56.0126C228.809 56.5949 229.929 56.886 231.273 56.886ZM254.52 35.5878H250.086V28.6004H254.52V26.1145C254.52 22.6656 255.461 20.0005 257.342 18.1193C258.82 16.686 260.881 15.7678 263.523 15.3646C266.166 14.9167 268.966 14.8495 271.922 15.1631V22.8895C270.892 22.8448 269.973 22.8671 269.167 22.9567C268.361 23.0015 267.689 23.1583 267.151 23.427C266.614 23.6958 266.188 24.1213 265.875 24.7036C265.606 25.2411 265.472 25.9801 265.472 26.9207V28.6004H271.922V35.5878H265.472V63H254.52V35.5878ZM287.014 63.4031C285.402 63.4031 283.923 63.2687 282.58 63C281.281 62.6865 280.139 62.1714 279.153 61.4547C278.168 60.738 277.406 59.775 276.869 58.5657C276.331 57.3115 276.063 55.7662 276.063 53.9298V35.4535H271.494V28.6004H276.063V17.7162H286.745V28.6004H292.994V35.4535H286.745V51.5783C286.745 52.922 287.081 53.8178 287.753 54.2657C288.47 54.7136 289.41 54.9376 290.575 54.9376C291.068 54.9376 291.538 54.9376 291.986 54.9376C292.434 54.8928 292.77 54.8704 292.994 54.8704V62.8656C292.501 63 291.74 63.112 290.709 63.2016C289.724 63.3359 288.492 63.4031 287.014 63.4031Z" fill="black"/>
<rect x="20.502" y="1.25195" width="20.5024" height="20.5024" fill="#9364F2"/>
<rect x="20.502" y="21.7549" width="20.5024" height="20.5024" fill="#FE4E7F"/>
<path d="M0 21.7544C0 10.4312 9.17925 1.25195 20.5024 1.25195V21.7544H0Z" fill="#FFC700"/>
<rect y="21.7549" width="20.5024" height="20.5024" fill="#2A2E9A"/>
<rect y="42.2578" width="20.5024" height="20.5024" fill="#84C3F6"/>
</svg>
