<?xml version="1.0" encoding="utf-8"?>
<!-- Generator: Adobe Illustrator 26.5.0, SVG Export Plug-In . SVG Version: 6.00 Build 0)  -->
<svg version="1.1" id="Layer_1" xmlns="http://www.w3.org/2000/svg" xmlns:xlink="http://www.w3.org/1999/xlink" x="0px" y="0px"
	 viewBox="0 0 295 80" style="enable-background:new 0 0 295 80;" xml:space="preserve">
<style type="text/css">
	.st0{fill:#FFFFFF;}
	.st1{fill:#9364F2;}
	.st2{fill:#FE4E7F;}
	.st3{fill:#FFC700;}
	.st4{fill:#2A2E9A;}
	.st5{fill:#84C3F6;}
</style>
<path class="st0" d="M53.5,35.6H49v-7h4.5v-2.5c0-3,0.7-5.2,2-6.9c0.7-0.9,1.5-1.7,2.6-2.4c1.1-0.6,2.3-1.1,3.6-1.4
	c1.3-0.3,2.8-0.5,4.3-0.5c1.6,0,3.2,0,4.8,0.2v7.7c-1,0-1.9,0-2.8,0.1c-0.8,0-1.5,0.2-2,0.5c-0.5,0.3-1,0.7-1.3,1.3
	c-0.3,0.5-0.4,1.3-0.4,2.2v1.7h6.4v7h-6.4V63H53.5V35.6z M74.3,28.6h11V63h-11V28.6z M74.3,15h11v8.9h-11V15z M88.6,15h11.1v48H88.6
	V15z M103,28.6h10.5v4.9h0.2c1.1-1.8,2.4-3.2,4.1-4.3c1.7-1.1,3.8-1.6,6.3-1.6c2.3,0,4.2,0.5,5.8,1.6c1.7,1.1,2.9,2.6,3.8,4.4h0.1
	c1.3-2.1,2.9-3.6,4.7-4.6c1.8-1,3.9-1.5,6.1-1.5c1.9,0,3.6,0.3,5.1,0.9c1.5,0.6,2.7,1.5,3.6,2.7c1,1.1,1.7,2.5,2.2,4.1
	s0.7,3.4,0.7,5.3V63h-11V42.6c0-1.9-0.4-3.3-1.2-4.3c-0.8-1-2-1.5-3.6-1.5c-1.7,0-3.1,0.6-4,1.9c-0.9,1.3-1.4,3-1.4,5V63h-11V42.6
	c0-1.9-0.4-3.3-1.2-4.3c-0.8-1-2-1.5-3.6-1.5c-1.7,0-3,0.6-4,1.9c-0.9,1.3-1.4,3-1.4,5V63h-11V28.6z M159.3,15h10.8v25.3l10.2-11.6
	H193l-12.1,12.9L194.4,63h-12.7l-8.3-14l-3.3,3.5V63h-10.8V15z M194.9,28.6h10.5V34h0.2c1.2-2.1,2.6-3.6,4-4.5
	c1.5-0.9,3.3-1.4,5.4-1.4c1,0,1.7,0.1,2.1,0.3v9.4h-0.3c-3.4-0.5-6,0.1-8.1,1.7c-2,1.6-3,4.3-3,8.1V63h-11V28.6z M227.8,63.9
	c-1.7,0-3.3-0.2-4.8-0.7c-1.4-0.4-2.7-1.1-3.7-2c-1-0.9-1.8-2-2.4-3.3c-0.6-1.3-0.9-2.8-0.9-4.5c0-1.9,0.3-3.4,1-4.7
	c0.7-1.3,1.7-2.4,2.9-3.2c1.2-0.9,2.6-1.5,4.2-1.9c1.6-0.4,3.3-0.8,5.1-1c3.2-0.4,5.5-0.9,6.8-1.3c1.3-0.5,1.9-1.3,1.9-2.5
	c0-1.1-0.4-2-1.1-2.7c-0.7-0.7-1.9-1-3.6-1c-1.7,0-3.1,0.4-4,1.1c-0.9,0.8-1.4,1.9-1.6,3.3h-10.1c0-1.6,0.4-3.1,1.1-4.6
	c0.7-1.4,1.6-2.7,2.9-3.8c1.3-1.1,2.9-1.9,4.8-2.6c1.9-0.6,4.2-0.9,6.8-0.9c2.6,0,4.8,0.2,6.6,0.7c1.8,0.4,3.3,1.1,4.6,2.1
	c1.5,1.1,2.6,2.4,3.3,4.1c0.7,1.7,1.1,3.6,1.1,5.7v17.3c0,1.4,0.1,2.5,0.2,3.3c0.2,0.8,0.5,1.3,1,1.6V63h-10.6
	c-0.3-0.4-0.5-0.9-0.7-1.5c-0.2-0.7-0.3-1.5-0.5-2.4H238c-1,1.4-2.4,2.6-4,3.4C232.5,63.4,230.4,63.9,227.8,63.9z M231.3,56.9
	c2.1,0,3.7-0.6,5-1.7c1.3-1.1,1.9-2.6,1.9-4.5v-4.1c-0.7,0.4-1.6,0.7-2.6,1c-0.9,0.3-2,0.5-3.1,0.8c-2.1,0.5-3.6,1.1-4.6,1.7
	c-0.9,0.6-1.4,1.6-1.4,2.9c0,1.4,0.4,2.4,1.3,3C228.8,56.6,229.9,56.9,231.3,56.9z M254.5,35.6h-4.4v-7h4.4v-2.5
	c0-3.4,0.9-6.1,2.8-8c1.5-1.4,3.5-2.4,6.2-2.8c2.6-0.4,5.4-0.5,8.4-0.2v7.7c-1,0-1.9,0-2.8,0.1c-0.8,0-1.5,0.2-2,0.5
	c-0.5,0.3-1,0.7-1.3,1.3c-0.3,0.5-0.4,1.3-0.4,2.2v1.7h6.5v7h-6.5V63h-11V35.6z M287,63.4c-1.6,0-3.1-0.1-4.4-0.4
	c-1.3-0.3-2.4-0.8-3.4-1.5c-1-0.7-1.7-1.7-2.3-2.9c-0.5-1.3-0.8-2.8-0.8-4.6V35.5h-4.6v-6.9h4.6V17.7h10.7v10.9h6.2v6.9h-6.2v16.1
	c0,1.3,0.3,2.2,1,2.7c0.7,0.4,1.7,0.7,2.8,0.7c0.5,0,1,0,1.4,0c0.4,0,0.8-0.1,1-0.1v8c-0.5,0.1-1.3,0.2-2.3,0.3
	C289.7,63.3,288.5,63.4,287,63.4z"/>
<rect x="20.5" y="1.3" class="st1" width="20.5" height="20.5"/>
<rect x="20.5" y="21.8" class="st2" width="20.5" height="20.5"/>
<path class="st3" d="M0,21.8C0,10.4,9.2,1.3,20.5,1.3v20.5H0z"/>
<rect y="21.8" class="st4" width="20.5" height="20.5"/>
<rect y="42.3" class="st5" width="20.5" height="20.5"/>
</svg>
